<svg width="107" height="71" viewBox="0 0 107 71" fill="none" xmlns="http://www.w3.org/2000/svg">
<path d="M96.76 0H9.44C4.248 0 0 4.248 0 9.44V61.36C0 66.552 4.248 70.8 9.44 70.8H96.76C101.952 70.8 106.2 66.552 106.2 61.36V9.44C106.2 4.248 101.952 0 96.76 0ZM9.44 4.72H96.76C97.114 4.72 97.35 4.72 97.704 4.838L54.634 40.474C53.808 41.182 52.51 41.182 51.566 40.474L8.496 4.838C8.85 4.72 9.086 4.72 9.44 4.72ZM4.72 61.36V9.44C4.72 8.968 4.838 8.496 4.956 8.024L37.996 35.4L4.956 62.776C4.838 62.304 4.72 61.832 4.72 61.36ZM96.76 66.08H9.44C9.086 66.08 8.85 66.08 8.496 65.962L41.654 38.468L48.498 44.132C49.796 45.194 51.448 45.784 52.982 45.784C54.516 45.784 56.168 45.194 57.466 44.132L64.31 38.468L97.468 65.962C97.35 66.08 97.114 66.08 96.76 66.08ZM101.48 61.36C101.48 61.832 101.362 62.304 101.244 62.776L68.204 35.4L101.244 8.024C101.362 8.496 101.48 8.968 101.48 9.44V61.36Z" fill="#1673FF"/>
</svg>
