<svg width="106" height="106" viewBox="0 0 106 106" fill="none" xmlns="http://www.w3.org/2000/svg">
<path fill-rule="evenodd" clip-rule="evenodd" d="M83.912 3.75705e-07H22.0839C19.1837 -0.000267131 16.3119 0.570768 13.6325 1.68049C10.953 2.79022 8.51837 4.4169 6.46764 6.46764C4.4169 8.51837 2.79022 10.953 1.68049 13.6325C0.570768 16.3119 -0.000267131 19.1837 3.75705e-07 22.0839V83.912C-0.000534614 86.8124 0.570288 89.6846 1.67987 92.3644C2.78945 95.0442 4.41606 97.4792 6.46679 99.5303C8.51753 101.581 10.9522 103.208 13.6318 104.319C16.3114 105.429 19.1835 106 22.0839 106H83.912C86.8127 106 89.6851 105.429 92.365 104.319C95.045 103.209 97.48 101.582 99.5312 99.5312C101.582 97.48 103.209 95.045 104.319 92.365C105.429 89.6851 106 86.8127 106 83.912V22.0839C106 19.1835 105.429 16.3114 104.319 13.6318C103.208 10.9522 101.581 8.51753 99.5303 6.46679C97.4792 4.41606 95.0442 2.78945 92.3644 1.67987C89.6846 0.570288 86.8124 -0.000534614 83.912 3.75705e-07ZM64.1927 85.91C62.4024 86.2562 61.8342 85.1544 61.8342 84.2114V74.5167C61.8342 71.2193 60.6773 69.0706 59.4044 67.9728C67.2762 67.097 75.5452 64.1031 75.5452 50.5407C75.5452 46.671 74.1684 43.5283 71.9097 41.0578C72.2702 40.1637 73.4821 36.5771 71.5594 31.7053C71.5594 31.7053 68.596 30.7582 61.8505 35.3265C56.0577 33.7433 49.9463 33.7433 44.1536 35.3265C37.404 30.7582 34.4365 31.7053 34.4365 31.7053C32.522 36.571 33.7298 40.1637 34.0964 41.0578C31.8356 43.5283 30.4548 46.6811 30.4548 50.5407C30.4548 64.0766 38.7014 67.1092 46.5447 68.0033C45.5365 68.8852 44.622 70.4474 44.3043 72.7285C42.2859 73.6307 37.1759 75.1888 34.0231 69.7895C34.0231 69.7895 32.1554 66.3984 28.6054 66.1459C28.6054 66.1459 25.1614 66.1031 28.3631 68.2966C28.3631 68.2966 30.6849 69.3842 32.2878 73.4637C32.2878 73.4637 34.3245 79.7775 44.1617 77.6349V84.2114C44.1617 85.1442 43.5935 86.2481 41.8297 85.9141C25.7072 80.5494 14.7416 63.8831 18.3486 45.3186C21.0228 31.5281 32.133 20.4138 45.9215 17.7417C68.5288 13.3567 88.3296 30.5546 88.3296 52.388C88.3311 59.8012 86.0011 67.0271 81.6694 73.0431C77.3377 79.0591 71.2237 83.5604 64.1927 85.91Z" fill="#1673FF"/>
</svg>
