<svg width="62" height="90" viewBox="0 0 62 90" fill="none" xmlns="http://www.w3.org/2000/svg">
<path d="M60.2 26.1465C58.4 28.2465 55.3 28.5465 53.2 26.7465L39.9 15.6465V70.3465C39.9 70.4465 39.9 70.5465 39.9 70.6465C39.6 81.3465 30.8 89.9465 20 89.9465C9 89.9465 0 81.0465 0 69.9465C0 58.9465 8.9 49.9465 20 49.9465C23.6 49.9465 27 50.9465 30 52.6465V4.94649C30 3.04649 31.1 1.24649 32.9 0.446492C34.7 -0.353508 36.7 -0.0535086 38.2 1.14649L59.7 19.1465C61.7 20.8465 62 23.9465 60.2 26.1465Z" fill="white"/>
</svg>
