<svg width="80" height="90" viewBox="0 0 80 90" fill="none" xmlns="http://www.w3.org/2000/svg">
<path d="M80 15V31V75C80 83.3 73.3 90 65 90C56.7 90 50 83.3 50 75C50 66.7 56.7 60 65 60C69.3 60 73.3 61.9 76 64.8V32.5L30 20.5V62C30 70.3 23.3 77 15 77C6.7 77 0 70.3 0 62C0 53.7 6.7 47 15 47C19.3 47 23.3 48.9 26 51.8V18V2C26 1.9 26 1.7 26 1.6V1.5C26 1.4 26.1 1.3 26.1 1.2C26.1 1.2 26.1 1.1 26.2 1.1C26.2 1 26.3 0.9 26.3 0.9L26.4 0.8C26.5 0.7 26.5 0.7 26.6 0.6C26.6 0.6 26.6 0.6 26.7 0.5C26.8 0.4 26.9 0.4 27 0.3C27 0.3 27.1 0.3 27.1 0.2C27.4 0.0999998 27.7 0 28 0H28.1C28.2 0 28.3 0 28.4 0L78.4 13C78.5 13 78.5 13 78.6 13.1H78.7C78.8 13.1 78.9 13.2 79 13.3C79.1 13.4 79.2 13.4 79.2 13.5L79.3 13.6C79.4 13.7 79.4 13.7 79.5 13.8L79.6 13.9C79.6 14 79.7 14 79.7 14.1C79.7 14.1 79.7 14.2 79.8 14.2C79.8 14.3 79.9 14.4 79.9 14.4V14.5C80 14.7 80 14.9 80 15Z" fill="white"/>
</svg>
