<svg xmlns="http://www.w3.org/2000/svg" viewBox="0 0 800.33 800.44"><defs><style>.cls-1{fill:#fff;}.cls-2{fill:#1db954;}</style></defs><title>spotify</title><g id="Layer_2" data-name="Layer 2"><g id="Layer_1-2" data-name="Layer 1"><circle class="cls-1" cx="400.26" cy="400" r="400"/><path class="cls-2" d="M400.17,800.44c220.89,0,400.16-179.27,400.16-400.16S621.06.11,400.17.11,0,179.39,0,400.28,179.27,800.44,400.17,800.44ZM563.26,588.89v0c-26.92,0-111.92-94.3-350.82-45.35-6.3,1.63-14.54,4.2-19.21,4.2-30.51,0-36.34-45.65-3.53-52.62C321.85,466,456.91,468.54,572.09,537.43c27.48,17.55,15.81,51.46-8.83,51.46Zm42.83-105.81c-3.77-1-2.67,2.3-19.91-6.77-100.88-59.69-251.21-83.77-385-47.45-7.73,2.1-11.93,4.2-19.2,4.2-35.72,0-45.19-53.72-6.27-64.7,157.26-44.18,326-18.4,443.41,51.46,13.08,7.74,18.25,17.77,18.25,31.78C637.2,469,623.66,483.08,606.09,483.08ZM151.66,233.47c150.83-44.15,379.09-30.21,521,52.63,36.38,21,22.08,74-16.61,74l0,0c-8.4,0-13.57-2.1-20.84-6.3-114.82-68.56-320.27-85-453.19-47.88-5.84,1.6-13.11,4.16-20.84,4.16-21.31,0-37.59-16.64-37.59-38.08,0-21.91,13.58-34.31,28.08-38.52Z"/></g></g></svg>